<svg xmlns="http://www.w3.org/2000/svg" aria-hidden="true" style="position:absolute;width:0;height:0;overflow:hidden">
  <defs>
    <symbol id="icon-icon-4" viewBox="0 0 32 32">
      <path
        d="M11.259 0h9.481c6.218 0 11.259 5.041 11.259 11.259v9.481c0 6.218-5.041 11.259-11.259 11.259h-9.481C5.041 31.999 0 26.958 0 20.74v-9.481C0 5.041 5.041 0 11.259 0z" />
      <path
        d="M19.302 12.106h.508a.167.167 0 0 0 .169-.169v-.339a.167.167 0 0 0-.169-.169h-7.788a.167.167 0 0 0-.169.169v.339c0 .095.074.169.169.169h.508c0 1.958.936 3.376 1.973 4.063-1.037.688-1.973 2.106-1.973 4.064h-.508a.167.167 0 0 0-.169.169v.339c0 .095.074.169.169.169h7.788a.167.167 0 0 0 .169-.169v-.339a.167.167 0 0 0-.169-.169h-.508c0-1.958-.936-3.376-1.974-4.064 1.037-.688 1.974-2.106 1.974-4.063zm-.678 0c0 .772-.175 1.455-.45 2.032h-4.519a4.693 4.693 0 0 1-.45-2.032h5.418zm-.301 6.434h-4.815c.392-1.021 1.095-1.746 1.799-2.032h1.217c.704.286 1.407 1.011 1.799 2.032z" />
    </symbol>
    <symbol id="icon-icon-3" viewBox="0 0 28 32">
      <path
        d="M9.806 0h8.258c5.416 0 9.806 4.391 9.806 9.806v8.258c0 5.416-4.39 9.806-9.806 9.806H9.806C4.39 27.87 0 23.48 0 18.064V9.806C0 4.39 4.391 0 9.806 0z" />
      <path
        d="M13.935 17.622a.289.289 0 0 0 .203-.083l2.871-2.765c.041-.041 1.055-.968 1.055-2.074 0-1.35-.825-2.157-2.203-2.157-.806 0-1.562.636-1.926.995-.364-.359-1.12-.995-1.926-.995-1.378 0-2.203.806-2.203 2.157 0 1.106 1.014 2.032 1.051 2.065l2.876 2.774a.287.287 0 0 0 .203.083z" />
    </symbol>
    <symbol id="icon-icon-2" viewBox="0 0 28 32">
      <path
        d="M9.806 0h8.258c5.416 0 9.806 4.391 9.806 9.806v8.258c0 5.416-4.39 9.806-9.806 9.806H9.806C4.39 27.87 0 23.48 0 18.064V9.806C0 4.39 4.391 0 9.806 0z" />
      <path
        d="m14.184 13.235.604.281.899-.267v-.627c0-1.065-.899-1.917-1.972-1.917-1.069 0-1.972.848-1.972 1.903v2.857c0 .263-.212.47-.47.47s-.47-.207-.47-.47v-1.207H9.291v1.226c0 1.092.885 1.977 1.977 1.977 1.083 0 1.977-.871 1.977-1.949v-2.82c0-.258.212-.47.47-.47s.47.212.47.47v.544zm2.443 1.023v1.267c0 .258-.212.465-.47.465s-.47-.207-.47-.465v-1.244l-.899.267-.604-.281v1.235a1.97 1.97 0 0 0 1.977 1.959 1.977 1.977 0 0 0 1.977-1.977v-1.226h-1.512z" />
    </symbol>
    <symbol id="icon-icon-1" viewBox="0 0 28 32">
      <path
        d="M9.806 0h8.258c5.416 0 9.806 4.391 9.806 9.806v8.258c0 5.416-4.39 9.806-9.806 9.806H9.806C4.39 27.87 0 23.48 0 18.064V9.806C0 4.39 4.391 0 9.806 0z" />
      <path
        d="m16.576 14.76-4.719-4.719a.275.275 0 0 0-.207-.088.298.298 0 0 0-.111.023.294.294 0 0 0-.184.272v6.931a.296.296 0 0 0 .295.295.29.29 0 0 0 .207-.088l1.438-1.438.88 2.083a.298.298 0 0 0 .387.157l.816-.346a.297.297 0 0 0 .157-.387l-.926-2.194h1.76c.12 0 .226-.074.272-.184a.284.284 0 0 0-.065-.318z" />
    </symbol>
  </defs>
</svg>